<?xml version="1.0" standalone="no"?>
<!DOCTYPE svg PUBLIC "-//W3C//DTD SVG 20010904//EN"
 "http://www.w3.org/TR/2001/REC-SVG-20010904/DTD/svg10.dtd">
<svg version="1.0" xmlns="http://www.w3.org/2000/svg"
 width="512.000000pt" height="250.000000pt" viewBox="0 0 512.000000 250.000000"
 preserveAspectRatio="xMidYMid meet">

<g transform="translate(0.000000,250.000000) scale(0.100000,-0.100000)"
fill="#000000" stroke="none">
<path d="M2450 2240 c-330 -39 -620 -237 -772 -528 -204 -388 -132 -858 178
-1165 213 -212 517 -321 803 -288 280 33 510 157 677 366 320 398 290 967 -68
1325 -166 166 -370 263 -610 290 -92 11 -114 11 -208 0z m287 -25 c291 -55
531 -224 678 -475 94 -161 129 -296 128 -495 0 -118 -4 -156 -26 -239 -90
-340 -344 -600 -684 -702 -125 -37 -336 -45 -473 -16 -368 76 -660 353 -757
718 -22 85 -26 119 -26 244 0 126 3 158 27 245 76 278 263 508 521 637 172 87
418 120 612 83z"/>
<path d="M2430 2181 c-202 -29 -392 -125 -539 -270 -109 -107 -183 -230 -237
-391 -27 -80 -28 -95 -29 -265 0 -144 4 -193 18 -245 76 -273 278 -507 532
-618 145 -63 214 -77 390 -76 143 1 169 4 246 27 288 87 497 268 617 532 79
175 98 415 49 606 -105 404 -460 689 -877 704 -63 2 -140 0 -170 -4z m360 -36
c94 -26 210 -78 282 -126 82 -56 189 -159 244 -235 44 -61 51 -78 37 -87 -5
-2 -2 -2 5 0 19 4 78 -129 103 -234 29 -118 29 -305 1 -413 -24 -89 -57 -179
-75 -203 -11 -15 -18 -13 -85 21 l-73 37 -20 -25 c-59 -73 -142 -148 -204
-185 -26 -16 -26 -14 5 11 72 58 161 152 165 175 3 13 9 25 15 27 5 2 10 10
10 19 0 8 12 30 26 48 14 19 23 39 19 45 -4 6 0 22 9 35 9 13 13 31 10 40 -5
12 -12 8 -31 -20 -13 -19 -21 -39 -18 -44 3 -5 -6 -18 -20 -29 -14 -11 -25
-23 -25 -26 0 -13 -65 -95 -79 -101 -10 -4 -9 0 3 14 10 11 15 25 11 30 -3 6
0 11 7 11 22 0 118 195 118 238 0 48 -10 83 -21 76 -5 -3 -9 0 -9 5 0 6 5 11
10 11 6 0 10 7 10 15 0 9 -9 15 -21 15 -15 0 -19 -5 -15 -15 3 -8 1 -15 -5
-15 -6 0 -7 -5 -4 -10 3 -6 -1 -13 -9 -16 -9 -3 -16 -10 -16 -16 0 -5 5 -6 10
-3 6 3 10 -1 10 -9 0 -8 -4 -18 -10 -21 -5 -3 -10 0 -10 7 0 18 -37 -57 -55
-113 -9 -27 -14 -53 -11 -58 3 -5 -1 -12 -10 -15 -8 -3 -14 -11 -13 -18 1 -7
-6 -30 -15 -51 -9 -21 -14 -42 -11 -47 8 -14 -52 -120 -93 -163 -21 -22 -61
-53 -90 -69 -30 -17 -57 -41 -62 -53 -19 -49 -272 -74 -405 -40 -64 17 -244
102 -285 135 -24 20 -24 20 25 -1 27 -11 63 -29 80 -39 16 -10 61 -31 98 -45
99 -40 106 -19 10 31 -62 32 -86 51 -125 102 -27 34 -46 62 -44 62 3 0 29 -9
57 -20 66 -26 74 -20 11 8 -97 43 -113 38 -68 -21 13 -18 31 -47 40 -65 l17
-34 -30 23 c-17 13 -31 28 -31 34 0 6 -11 22 -25 35 -14 13 -25 31 -25 41 0
10 -5 21 -12 25 -7 5 -9 2 -4 -7 4 -8 -2 -3 -13 11 -12 14 -19 33 -17 42 2 10
-1 21 -6 25 -7 3 -8 1 -4 -5 4 -7 3 -12 -2 -12 -11 0 -47 81 -61 138 -6 23
-16 61 -22 85 -6 23 -11 65 -11 92 1 43 -1 46 -9 25 -8 -18 -12 -21 -18 -11
-14 23 -24 -6 -22 -68 2 -97 9 -175 17 -195 6 -15 4 -17 -7 -11 -8 5 -11 5 -6
-1 5 -5 14 -9 20 -9 7 -1 11 -6 10 -13 -2 -6 6 -28 18 -48 27 -49 18 -53 -19
-8 l-30 36 -70 -41 c-39 -23 -75 -41 -79 -41 -12 0 -68 137 -90 220 -13 49
-17 102 -17 215 1 133 4 160 27 238 35 112 59 163 123 262 132 202 341 343
595 400 86 20 319 14 409 -10z m384 -990 c-4 -8 -12 -15 -20 -15 -8 0 -14 7
-14 15 0 8 9 15 20 15 13 0 18 -5 14 -15z m56 -154 c-5 -11 -15 -23 -22 -27
-7 -5 -8 -2 -3 7 21 37 44 55 25 20z m136 -198 c-14 -36 -91 -136 -152 -198
-364 -365 -957 -366 -1317 -2 -61 62 -147 173 -147 191 0 3 32 24 70 47 l71
42 35 -42 c20 -22 40 -38 46 -35 7 4 8 2 4 -4 -21 -34 221 -191 374 -242 252
-84 588 20 810 250 l75 77 68 -35 c45 -23 66 -40 63 -49z m-196 73 c0 -3 -4
-8 -10 -11 -5 -3 -10 -1 -10 4 0 6 5 11 10 11 6 0 10 -2 10 -4z"/>
<path d="M2554 2095 c1 -22 6 -35 14 -35 9 0 12 11 10 32 -4 44 -25 47 -24 3z"/>
<path d="M2715 2120 c-3 -5 1 -10 10 -10 9 0 13 5 10 10 -3 6 -8 10 -10 10 -2
0 -7 -4 -10 -10z"/>
<path d="M2510 2100 c0 -30 23 -110 32 -110 4 0 5 6 2 14 -3 8 -1 17 5 21 6 3
11 1 11 -4 0 -6 5 -11 10 -11 6 0 10 7 10 15 0 8 -9 15 -20 15 -21 0 -37 38
-26 65 3 9 0 15 -9 15 -8 0 -15 -9 -15 -20z"/>
<path d="M2610 2095 c0 -14 5 -25 10 -25 6 0 10 11 10 25 0 14 -4 25 -10 25
-5 0 -10 -11 -10 -25z"/>
<path d="M2356 2102 c-10 -16 5 -72 19 -72 11 0 11 8 3 38 -12 43 -14 47 -22
34z"/>
<path d="M2314 2068 c3 -13 6 -29 6 -35 0 -7 7 -13 16 -13 11 0 14 5 10 16 -3
9 -6 24 -6 35 0 11 -7 19 -16 19 -12 0 -15 -6 -10 -22z"/>
<path d="M2716 2059 c-9 -47 -7 -89 4 -89 6 0 10 13 10 29 0 16 3 43 6 60 4
18 2 31 -3 31 -6 0 -13 -14 -17 -31z"/>
<path d="M2826 2080 c-8 -21 -25 -103 -26 -117 0 -7 6 -13 13 -13 7 0 13 16
14 40 2 22 7 49 12 58 6 11 6 24 1 32 -8 12 -10 12 -14 0z"/>
<path d="M2248 2068 c-21 -7 -25 -13 -18 -26 5 -9 11 -25 14 -35 10 -31 25 -9
16 23 -5 17 -5 30 0 30 10 0 30 -63 30 -92 0 -10 7 -18 16 -18 8 0 13 3 11 8
-3 4 -10 33 -17 65 -6 31 -14 57 -18 56 -4 0 -19 -5 -34 -11z"/>
<path d="M2634 2035 c-6 -41 -1 -66 10 -54 10 11 16 99 7 99 -5 0 -13 -20 -17
-45z"/>
<path d="M2756 2027 c2 -76 5 -78 18 -17 13 58 12 70 -7 70 -8 0 -12 -18 -11
-53z"/>
<path d="M2863 2055 c0 -8 6 -15 14 -15 7 0 13 7 13 15 0 8 -6 15 -13 15 -8 0
-14 -7 -14 -15z"/>
<path d="M2165 2040 c-9 -10 -25 -18 -34 -17 -9 1 -16 -2 -16 -8 0 -5 8 -9 18
-8 11 2 17 -4 17 -17 0 -10 4 -21 9 -25 5 -3 12 -19 16 -35 4 -17 13 -30 21
-30 16 0 18 11 6 26 -9 10 -32 84 -32 102 0 6 7 9 15 6 9 -4 15 0 15 10 0 22
-13 20 -35 -4z"/>
<path d="M2950 2025 c0 -8 -9 -15 -19 -15 -15 0 -21 -10 -26 -40 -9 -52 -9
-54 5 -58 6 -2 10 0 8 5 -5 21 15 73 29 73 11 0 14 -7 10 -22 -3 -13 -9 -35
-12 -50 -6 -21 -4 -28 8 -28 8 0 17 -6 20 -12 2 -7 8 -10 12 -5 5 4 1 13 -9
20 -15 11 -16 16 -2 54 9 26 11 45 5 48 -5 4 -9 15 -9 26 0 10 -4 19 -10 19
-5 0 -10 -7 -10 -15z"/>
<path d="M2198 1993 c7 -3 16 -2 19 1 4 3 -2 6 -13 5 -11 0 -14 -3 -6 -6z"/>
<path d="M2666 1991 c-4 -7 -5 -15 -2 -18 9 -9 19 4 14 18 -4 11 -6 11 -12 0z"/>
<path d="M2057 1974 c-3 -4 1 -16 9 -28 13 -21 10 -36 -7 -36 -4 0 -11 9 -14
20 -8 26 -23 25 -51 -1 -19 -18 -21 -25 -12 -45 12 -25 32 -32 43 -14 11 17
24 11 31 -15 3 -14 9 -25 13 -25 17 0 19 14 6 41 -14 26 -13 29 5 42 18 13 19
18 9 41 -12 26 -20 31 -32 20z m-29 -72 c4 -25 -13 -30 -22 -6 -9 25 -7 36 7
32 6 -3 13 -14 15 -26z"/>
<path d="M2850 1965 c0 -8 0 -18 -1 -22 0 -4 4 -9 10 -11 6 -2 11 8 11 22 0
14 -4 26 -10 26 -5 0 -10 -7 -10 -15z"/>
<path d="M2125 1960 c-3 -5 -1 -10 4 -10 6 0 11 5 11 10 0 6 -2 10 -4 10 -3 0
-8 -4 -11 -10z"/>
<path d="M2465 1950 c-208 -27 -437 -168 -561 -346 -40 -58 -76 -122 -94 -168
l-8 -23 91 24 c74 18 96 28 112 50 11 16 56 65 101 109 140 140 300 202 493
191 113 -6 200 -31 290 -84 72 -43 165 -133 214 -208 33 -51 57 -63 149 -78
37 -6 37 -5 27 21 -15 43 -52 114 -81 157 -19 28 -23 42 -15 48 8 5 7 7 -3 6
-8 -1 -44 26 -80 61 -177 173 -425 266 -635 240z m330 -119 c3 -5 0 -13 -6
-17 -7 -4 -9 -3 -5 4 3 5 0 13 -6 15 -9 4 -10 6 -1 6 6 1 14 -3 18 -8z m112
-45 c0 -8 -6 -12 -15 -8 -11 4 -13 1 -7 -8 6 -9 4 -11 -5 -5 -10 6 -9 11 5 22
23 16 22 16 22 -1z m63 -40 c-7 -7 -13 -7 -20 0 -6 6 -3 10 10 10 13 0 16 -4
10 -10z"/>
<path d="M3086 1938 c-4 -18 -8 -20 -18 -10 -15 15 -28 16 -28 2 0 -5 7 -10
15 -10 19 0 19 -17 0 -53 -12 -24 -12 -29 0 -34 8 -3 15 -11 15 -19 0 -8 5
-14 10 -14 14 0 12 28 -2 33 -10 3 -7 16 10 51 12 25 22 53 22 61 0 23 -17 18
-24 -7z"/>
<path d="M3110 1886 c0 -9 5 -16 10 -16 6 0 10 4 10 9 0 6 -4 13 -10 16 -5 3
-10 -1 -10 -9z"/>
<path d="M2533 1630 l5 -40 -53 0 -53 0 -35 -82 c-19 -46 -58 -136 -86 -200
-69 -158 -68 -166 5 -88 29 31 72 62 110 80 54 26 73 30 149 30 76 0 95 -4
149 -30 38 -18 81 -49 110 -80 76 -81 75 -74 -15 138 -109 254 -95 232 -151
232 l-48 0 6 40 7 40 -53 0 -53 0 6 -40z m83 13 c-3 -10 -8 -35 -12 -55 -4
-28 -11 -38 -24 -38 -14 0 -21 12 -29 50 -6 28 -11 53 -11 55 0 3 18 5 41 5
34 0 40 -3 35 -17z m-62 -98 c28 -43 21 -55 -31 -55 -34 0 -55 -7 -80 -26 -18
-14 -33 -29 -33 -34 0 -4 14 5 31 21 30 28 34 29 133 29 120 -1 139 -11 167
-93 20 -58 26 -46 7 15 -16 55 -62 88 -121 88 -41 0 -47 3 -47 20 0 11 7 23
15 26 8 4 15 13 15 21 0 11 12 13 51 11 l50 -3 60 -140 c34 -77 65 -151 70
-165 l10 -25 -23 22 c-82 75 -183 102 -348 92 -52 -3 -79 -6 -60 -7 l35 -2
-55 -31 c-30 -16 -65 -40 -78 -52 -25 -24 -31 -39 83 226 l37 87 48 0 c40 0
50 -4 64 -25z"/>
<path d="M2396 1395 c-3 -9 -6 -22 -5 -28 0 -7 5 -1 10 12 5 13 8 26 5 28 -2
2 -6 -3 -10 -12z"/>
<path d="M3381 1344 c0 -11 3 -14 6 -6 3 7 2 16 -1 19 -3 4 -6 -2 -5 -13z"/>
<path d="M3408 1323 c7 -3 16 -2 19 1 4 3 -2 6 -13 5 -11 0 -14 -3 -6 -6z"/>
<path d="M3358 1293 c6 -2 9 -10 6 -15 -4 -7 -2 -8 4 -4 18 11 14 26 -5 25
-11 0 -13 -3 -5 -6z"/>
<path d="M2545 1245 c-13 -31 -44 -57 -62 -51 -8 3 -13 13 -9 21 3 8 1 17 -4
20 -6 4 -10 -2 -10 -12 -1 -24 -37 -66 -50 -58 -5 3 -10 16 -11 28 0 14 -2 16
-6 7 -2 -8 -8 -24 -13 -35 -4 -11 -11 -28 -13 -37 -8 -23 13 -95 22 -79 5 8
12 3 20 -13 11 -21 11 -28 -3 -48 -9 -12 -21 -40 -26 -60 -9 -32 -15 -37 -43
-40 -27 -2 -33 -8 -35 -30 -3 -22 1 -28 16 -28 24 0 37 -56 15 -64 -11 -5 -11
-11 3 -37 11 -23 19 -28 27 -20 16 16 61 -27 46 -45 -8 -9 -3 -17 17 -30 23
-16 28 -16 38 -3 15 20 56 12 56 -11 0 -26 61 -34 67 -9 6 23 41 35 56 20 15
-15 28 -13 51 4 14 11 16 18 8 27 -16 20 23 65 42 48 12 -9 18 -6 30 19 14 26
14 31 2 38 -22 12 -9 63 16 63 15 0 19 6 16 28 -2 22 -8 28 -35 30 -26 3 -34
9 -39 30 -4 15 -16 44 -27 65 -18 33 -19 39 -7 47 24 15 33 12 27 -10 -3 -11
-2 -20 3 -20 11 0 19 36 13 60 -3 11 -11 20 -18 20 -7 0 -15 -9 -18 -20 -6
-22 -27 -27 -27 -7 0 26 34 43 82 41 41 -2 45 0 33 13 -10 9 -13 24 -9 41 l7
27 -23 -23 c-18 -19 -24 -21 -37 -11 -10 9 -13 23 -9 41 3 15 1 28 -4 28 -6 0
-10 -4 -10 -10 0 -5 -13 -10 -29 -10 -16 0 -35 -8 -42 -17 -12 -15 -12 -16 4
-10 19 7 24 -8 5 -16 -10 -4 -9 -8 2 -17 13 -10 13 -11 -2 -6 -13 4 -18 0 -18
-13 0 -14 -5 -18 -20 -14 -15 4 -20 0 -20 -13 0 -15 -2 -16 -9 -5 -5 7 -6 23
-3 34 3 12 7 16 10 9 6 -19 34 -14 30 6 -2 11 -13 17 -33 17 -17 0 -36 4 -43
8 -18 12 3 46 27 44 16 -1 18 -5 10 -19 -12 -23 13 -25 31 -3 7 8 18 15 25 15
6 0 12 13 13 29 l1 30 -32 -19 c-35 -21 -52 -16 -59 15 l-5 20 -8 -20z m-54
-77 c0 -10 2 -10 6 0 11 27 20 10 13 -26 -11 -60 -19 -66 -42 -37 -17 22 -19
31 -9 51 11 25 30 32 32 12z m216 -66 l-21 -23 -8 22 c-6 15 -3 27 8 40 16 18
18 18 30 1 11 -14 9 -21 -9 -40z m-277 2 c0 -19 5 -34 10 -34 6 0 10 5 10 12
0 6 6 3 14 -7 8 -11 12 -23 10 -27 -3 -5 7 -3 21 2 15 6 46 10 69 10 127 0
221 -189 96 -192 -29 -1 -30 -2 -14 -20 17 -17 16 -18 -15 -2 -36 18 -51 13
-31 -11 10 -12 10 -15 -3 -15 -9 0 -18 -10 -20 -22 -3 -17 -5 -14 -6 10 0 17
-6 32 -12 32 -6 0 -8 -8 -5 -17 5 -16 5 -16 -8 0 -12 16 -15 16 -23 3 -6 -10
-13 -12 -23 -6 -10 7 -11 10 -2 10 6 0 12 7 12 15 0 19 -11 19 -36 0 -30 -23
-40 -17 -10 6 21 16 24 24 15 30 -7 4 -18 4 -24 -1 -6 -5 -20 -8 -30 -6 -11 2
-23 -4 -27 -13 -4 -9 -7 5 -7 32 -1 53 9 78 48 121 14 16 20 25 12 21 -11 -6
-13 -4 -8 9 5 14 3 17 -8 13 -26 -11 -60 64 -39 86 15 14 34 -8 34 -39z m123
-14 c4 -16 0 -20 -19 -20 -21 0 -23 2 -12 25 12 27 23 26 31 -5z m105 -25 c0
-21 -3 -23 -20 -14 -15 8 -17 13 -7 25 17 21 27 17 27 -11z"/>
<path d="M2535 870 c3 -5 10 -10 16 -10 5 0 9 5 9 10 0 6 -7 10 -16 10 -8 0
-12 -4 -9 -10z"/>
<path d="M3351 1224 c0 -11 3 -14 6 -6 3 7 2 16 -1 19 -3 4 -6 -2 -5 -13z"/>
<path d="M3271 1183 c0 -29 2 -33 8 -18 7 18 4 55 -5 55 -2 0 -4 -17 -3 -37z"/>
<path d="M3312 1095 c0 -16 2 -22 5 -12 2 9 2 23 0 30 -3 6 -5 -1 -5 -18z"/>
<path d="M3301 1034 c0 -11 3 -14 6 -6 3 7 2 16 -1 19 -3 4 -6 -2 -5 -13z"/>
<path d="M2380 1015 c0 -8 5 -15 10 -15 6 0 10 7 10 15 0 8 -4 15 -10 15 -5 0
-10 -7 -10 -15z"/>
<path d="M3260 975 c-8 -9 -8 -15 -2 -15 12 0 26 19 19 26 -2 2 -10 -2 -17
-11z"/>
<path d="M1896 740 c-20 -51 -20 -50 4 -50 11 0 20 5 20 10 0 6 4 10 9 10 6 0
7 -16 4 -35 -7 -43 4 -44 42 -5 31 32 27 54 -4 25 -20 -17 -20 -17 -14 20 l6
37 -26 -17 c-30 -19 -31 -18 -17 19 5 14 6 26 1 26 -5 0 -16 -18 -25 -40z"/>
<path d="M3200 744 c0 -20 -4 -25 -18 -22 -11 3 -34 -8 -58 -28 -33 -28 -36
-34 -18 -34 12 0 26 -11 34 -25 7 -14 17 -25 22 -25 12 0 10 8 -8 35 -22 33
-10 68 19 59 12 -3 30 -13 40 -22 19 -17 37 -8 19 10 -7 7 -12 24 -12 39 0 15
-4 31 -10 34 -6 4 -10 -5 -10 -21z"/>
<path d="M1996 649 c-22 -16 -35 -29 -30 -30 5 -1 18 -2 29 -3 11 0 22 -11 26
-26 4 -18 8 -21 12 -10 11 31 17 89 10 93 -5 3 -26 -8 -47 -24z"/>
<path d="M3070 643 c0 -14 41 -75 46 -70 7 6 -28 77 -38 77 -4 0 -8 -3 -8 -7z"/>
<path d="M2066 614 c-19 -18 -20 -38 -6 -65 11 -20 60 -27 60 -8 0 6 -6 9 -13
6 -24 -9 -40 9 -33 37 7 30 30 34 45 9 5 -10 13 -15 17 -10 9 9 -25 47 -42 47
-7 0 -20 -7 -28 -16z"/>
<path d="M3022 614 c-40 -28 -28 -49 26 -44 12 1 22 -3 22 -8 0 -13 -29 -24
-42 -16 -6 4 -9 1 -6 -6 7 -22 23 -22 48 -2 33 27 21 57 -20 48 -35 -6 -41 11
-8 23 12 4 17 11 11 14 -5 3 -19 -1 -31 -9z"/>
<path d="M2145 560 c-8 -16 -15 -37 -15 -47 1 -17 1 -17 15 1 18 24 49 14 42
-14 -9 -35 11 -21 23 16 12 35 6 62 -6 31 -9 -25 -44 -3 -37 23 8 30 -4 24
-22 -10z"/>
<path d="M2936 567 c-17 -12 -17 -18 -7 -50 7 -21 17 -37 21 -37 5 0 7 6 4 13
-3 8 3 20 12 28 14 11 18 11 30 -6 17 -23 18 -12 2 32 -13 35 -33 42 -62 20z
m30 -25 c-8 -9 -19 -13 -22 -9 -10 9 16 38 28 31 6 -4 4 -13 -6 -22z"/>
<path d="M2237 543 c-3 -4 -9 -25 -15 -45 -9 -35 -9 -37 19 -49 16 -6 32 -9
36 -6 3 4 -6 11 -21 17 -33 12 -25 33 10 24 32 -8 31 4 -2 16 -33 13 -21 32
14 24 18 -5 24 -3 17 4 -14 14 -52 24 -58 15z"/>
<path d="M2862 538 c-15 -8 -21 -17 -17 -27 4 -9 9 -28 12 -43 3 -16 9 -28 14
-28 15 0 59 23 59 31 0 5 -11 3 -25 -3 -35 -16 -45 -1 -15 23 l25 20 -27 -7
c-33 -7 -40 15 -8 23 11 3 20 9 20 14 0 11 -9 10 -38 -3z"/>
<path d="M2306 493 c-4 -16 -9 -36 -12 -45 -3 -10 -1 -18 5 -18 5 0 12 8 14
18 4 14 6 14 12 -5 9 -28 14 -28 31 -5 12 16 13 15 14 -8 1 -32 14 -10 23 38
8 41 -14 44 -33 5 -7 -16 -14 -23 -15 -18 -2 6 -6 22 -9 38 -4 15 -10 27 -15
27 -5 0 -12 -12 -15 -27z"/>
<path d="M2815 492 l-8 -34 -23 29 c-13 15 -23 24 -24 19 0 -13 43 -86 51 -86
11 0 22 63 16 87 -3 13 -7 9 -12 -15z"/>
<path d="M2703 473 c8 -40 3 -41 -28 -5 l-24 27 -1 -52 c0 -33 4 -53 11 -53 7
0 9 10 7 25 -6 30 3 32 27 5 10 -11 21 -20 26 -20 10 0 -1 83 -14 95 -6 7 -8
-1 -4 -22z"/>
<path d="M2737 458 c6 -45 10 -55 18 -46 8 8 -6 88 -15 88 -5 0 -6 -19 -3 -42z"/>
<path d="M2412 478 c-20 -20 -14 -56 14 -74 24 -16 26 -16 47 4 17 18 19 26
11 49 -10 31 -50 43 -72 21z m53 -33 c0 -23 -4 -30 -20 -30 -21 0 -31 25 -21
51 11 28 41 12 41 -21z"/>
<path d="M2562 440 c3 -43 5 -45 33 -45 29 0 30 2 31 45 l2 45 -7 -40 c-7 -49
-34 -56 -39 -10 -6 51 -24 55 -20 5z"/>
</g>
</svg>
